<svg xmlns="http://www.w3.org/2000/svg" xmlns:xlink="http://www.w3.org/1999/xlink" width="60pt" version="1.1" height="82pt" viewBox="0 0 60 82">
  <g>
    <g style="fill:#004433; fill-rule:evenodd;stroke:none;">
      <path d="M5 5 L45 5 L45 50 L5 50 L5 5 Z" transform="translate(3.05566, 0.78125)"/>
    </g>
    <g style="fill:#b3b9c5; fill-rule:evenodd;stroke:none;">
      <path d="M44.6884 0 C49.5732 0 54.1904 3.96289 54.1904 8.84863 L54.1904 53.1446 L9.23344 53.1446 C4.34961 53.1446 0 49.1142 0 44.2276 L0 0 L44.6884 0 Z M26.9248 4.80957 C26.0644 5.55371 25.5966 6.53027 25.3203 7.53809 C25.0869 8.42871 25.1142 9.72855 25.5527 10.5889 C25.8027 11.4062 26.2841 11.9462 26.8945 12.5157 C27.3037 12.4571 27.5224 11.9599 27.8291 11.669 L27.8007 11.6386 C28.1357 11.4492 27.9765 11.2167 28.2529 10.9678 C28.5449 10.4277 28.6318 9.88765 28.7783 9.33395 C28.9531 7.72754 28.3554 6.44336 27.4785 5.23242 C27.2754 5.12988 27.1728 4.82422 26.9248 4.80957 Z M21.4668 8.80859 C21.0879 8.80859 20.6054 8.64746 20.1972 8.80859 C20.0654 9.43655 20.2851 9.94625 20.372 10.4864 C20.8681 12.4141 22.5761 13.6679 24.4004 14.0917 C24.8672 14.0761 25.2461 14.2812 25.6699 14.0626 C25.7714 12.9667 25.4072 12.0635 24.9697 11.1866 C24.3125 9.96095 22.7802 9.01172 21.4668 8.80859 Z M33.581 8.83691 C33.1416 8.82324 32.7334 8.79395 32.2519 8.91016 C30.3545 9.31835 28.5879 10.9395 28.2968 12.8653 C28.2529 13.288 28.0634 13.6816 28.1797 14.121 C29.1132 14.1641 30.0615 14.0029 30.8506 13.5654 C32.5586 12.6181 33.7256 10.8809 33.6523 8.9834 L33.581 8.83691 Z M37.5341 10.6611 C36.4541 11.2901 35.3886 12.2227 35.082 13.4931 C34.4404 14.8653 34.7031 16.9228 35.6084 18.1484 C36.207 17.9014 36.6894 17.4326 37.1543 16.996 C38.1767 15.8721 38.5273 14.3974 38.4834 12.8653 C38.3818 12.0478 38.1338 11.1866 37.5341 10.6611 Z M17.4394 11.5371 C17.1318 11.3916 16.8261 10.9395 16.4453 11.1152 C16.0088 11.7578 15.7754 12.5585 15.6875 13.3907 C15.5713 15.5948 16.7089 17.5498 18.4892 18.3965 C18.5918 18.3526 18.708 18.1933 18.665 18.0909 C19.0146 17.6523 19.1025 17.127 19.249 16.6163 C19.5107 15.5361 19.2773 14.3252 18.8984 13.288 L18.7666 13.1865 C18.5771 12.4708 17.9062 12.004 17.4394 11.5371 Z M33.5507 12.8956 C32.1191 13.376 30.6894 14.3105 30.0478 15.7403 C29.7568 16.3829 29.6689 16.8936 29.5214 17.5645 C29.4345 18.2647 29.625 18.9228 29.7568 19.623 C30.0332 19.7392 30.3681 19.5791 30.6308 19.4921 C31.4052 19.1983 32.1054 18.6748 32.7041 18.0909 C33.8134 16.8349 34.0752 15.4335 33.9589 13.7706 C33.8134 13.4931 34.0029 12.8956 33.5507 12.8956 Z M20.8242 13.1425 C20.6933 13.0849 20.4736 12.9532 20.372 13.0703 C20.1386 13.7559 20.08 14.501 20.1679 15.3174 C20.3574 17.3311 21.9345 19.1552 23.8027 19.6962 C23.9912 19.7109 24.1963 19.9141 24.3711 19.6962 C24.8818 18.0312 24.4736 15.8575 23.2187 14.6163 C23.0429 14.3105 22.8828 14.251 22.6494 13.9883 C22.2256 13.6386 21.6279 13.4785 21.1757 13.2148 L20.8242 13.1425 Z M38.4531 16.3681 L38.4531 16.4707 C38.0156 17.0108 37.7256 17.7392 37.6074 18.4698 C38.1914 18.8204 38.9648 18.7177 39.6806 18.791 C41.7089 18.6456 43.5185 17.2734 44.1894 15.3907 C44.291 15.084 44.4238 14.7919 44.4082 14.4415 C42.3506 13.6679 39.7392 14.5733 38.4531 16.3681 Z M10.4619 14.5879 C10.2138 14.6904 9.46974 14.5879 9.66014 15.0684 C10.2431 17.127 11.9941 18.8046 14.0673 19.0245 C14.8554 19.1416 15.8486 19.0401 16.5195 18.6748 C16.2265 17.4043 15.541 16.251 14.5634 15.4931 L14.4619 15.4931 C13.2793 14.6602 11.9658 14.3105 10.4619 14.5879 Z M27.0703 15.3907 C26.1084 16.0029 25.7431 17.0683 25.4218 18.0459 C24.9257 20.1044 25.6552 22.0742 27.1728 23.2998 C28.0488 22.6728 28.4287 21.6514 28.749 20.7168 C29.1875 18.8359 28.6181 16.6308 27.0703 15.3907 Z M42.7158 20.4258 C41.0088 19.2579 38.8632 19.1846 36.9804 20.2207 L36.9072 20.4698 C37.4912 21.462 38.3369 22.2353 39.3584 22.746 C40.9199 23.4755 42.8906 23.2569 44.291 22.3233 C44.0302 21.5195 43.3144 21.0234 42.7158 20.4258 Z M34.7763 19.9433 C33.2441 19.4766 31.1425 20.0166 29.9023 21.2421 C29.1132 22.0605 28.5732 22.9648 28.4716 23.9727 C28.7929 24.0889 29.2744 24.1621 29.6543 24.1758 C31.7412 24.3212 33.6523 23.2569 34.6006 21.4755 L34.5566 21.4472 C34.8925 21.0528 34.9072 20.543 35.082 20.0752 C34.9941 19.8858 34.8925 20.0605 34.7763 19.9433 Z M16.0957 20.0752 C14.6943 19.6817 13.1338 19.7109 11.8632 20.4698 C11.1045 20.9511 10.3613 21.4317 9.96684 22.1758 C9.87894 22.4688 9.64454 22.5264 9.73144 22.8477 C10.8418 23.4609 12.0244 23.8115 13.4101 23.5489 C14.958 23.3165 16.1836 22.3516 17.0449 21.0234 L17.0156 20.9951 C17.1611 20.9073 17.1464 20.7608 17.2197 20.6445 C16.8847 20.3389 16.5195 20.2647 16.0957 20.0752 Z M19.6416 19.9736 C19.5263 20.1192 19.1328 19.959 19.1464 20.2501 C19.2773 20.8779 19.5703 21.4317 19.8906 21.9727 C21.0429 23.6806 22.9267 24.3956 24.999 24.1758 C25.3203 24.1904 25.6113 24.045 25.8447 23.8995 C25.3925 22.1621 24.1084 20.7032 22.4443 20.1192 C21.5263 19.9141 20.6357 19.7549 19.6416 19.9736 Z M32.8798 24.5273 C33.3613 25.373 34.455 25.8409 35.3017 26.0733 C36.8056 26.6279 38.8632 26.2061 40.0595 25.1983 C40.3076 24.9794 40.5713 24.7901 40.6865 24.4971 C40.1621 23.9727 39.665 23.5341 38.9795 23.2715 C37.0381 22.3379 34.3388 22.8623 32.8798 24.5273 Z M18.417 23.1251 C16.7089 22.8779 15.0009 23.5341 13.8193 24.7011 L13.79 24.8477 C14.2558 25.3877 14.8271 25.8115 15.4394 26.001 C16.4609 26.5849 18.0966 26.5704 19.1894 26.249 C20.0351 25.9141 20.9707 25.504 21.4668 24.7451 C20.664 23.8252 19.54 23.2715 18.417 23.1251 Z M32.8066 25.8995 C31.6963 25.212 30.3545 25.0087 29.1279 25.2715 C28.9384 25.3145 28.7197 25.2998 28.5302 25.4023 C28.5595 26.5401 29.4785 27.5772 30.1787 28.2773 C31.5947 29.4296 33.3613 29.752 35.1552 29.2266 C35.1279 28.9931 35.0683 28.7011 34.9814 28.4522 C34.6162 27.4903 33.6523 26.337 32.8066 25.8995 Z M25.6699 25.4023 C24.8525 25.124 23.8896 25.1397 23.0429 25.2998 C20.8974 25.7099 19.4228 27.3427 18.9414 29.4004 C19.1328 29.6044 19.4384 29.6641 19.7158 29.6788 C21.8466 29.9843 23.9179 28.9931 25.0273 27.2989 C25.3925 26.7148 25.583 26.1611 25.7285 25.504 L25.6699 25.4023 Z M42.5849 25.8544 C40.2646 25.5626 38.1474 26.5401 37.0537 28.5977 C37.9443 29.3575 38.9648 29.4004 40.0888 29.5341 C41.8115 29.4151 43.6201 28.5097 44.4375 26.9776 C44.6709 26.8028 44.4521 26.5546 44.291 26.4522 C43.6797 26.1611 43.2558 26.0157 42.5849 25.8544 Z M27.0273 26.2061 C26.0205 27.08 25.3056 28.5097 25.3203 29.8829 C25.3203 30.0147 25.291 30.3067 25.3486 30.4082 C25.3642 31.5605 25.9179 32.67 26.6045 33.5322 L26.6484 33.5029 L26.998 33.9111 C27.1142 33.9834 27.3037 34.1005 27.4209 33.9111 C27.8007 33.4288 28.3252 32.8458 28.5732 32.1298 C29.3183 30.5245 29.0117 28.2773 27.8291 26.9052 C27.6396 26.6573 27.3183 26.2773 27.0273 26.2061 Z M15.2207 26.9052 C13.6591 25.957 11.455 26.1181 9.90724 27.0517 L9.86324 27.1972 C9.99514 27.5918 10.331 27.8692 10.6084 28.249 C11.9658 29.7802 14.3886 30.3496 16.2705 29.6044 C16.5771 29.4004 17.1611 29.3418 17.2636 28.9483 C17.1611 28.876 17.205 28.6855 17.0888 28.7011 C16.7089 27.9716 15.9209 27.2706 15.2207 26.9052 Z M30.1064 29.4004 C29.5654 30.4511 29.7412 31.9843 30.1494 33.1084 C30.7627 34.6992 32.3095 35.9541 34.0029 36.3047 L34.1054 36.1876 C34.5273 35.0215 34.3828 33.7353 33.9589 32.5538 C33.2881 30.9034 31.7558 29.8105 30.1064 29.4004 Z M24.0498 29.6044 C22.4443 30.0576 21.0722 31.1817 20.4453 32.7578 C20.0351 33.8819 19.8476 35.4004 20.4736 36.538 C21.247 36.4062 21.9482 35.9834 22.6201 35.5303 C24.2978 34.1153 24.9404 32.0136 24.3711 29.9267 C24.3564 29.752 24.2978 29.5341 24.0498 29.6044 Z M37.7089 30.627 C37.9873 32.044 38.9209 33.1669 40.0312 33.9834 C41.2861 34.7724 43.125 35.1084 44.6142 34.4365 C44.5263 33.8819 44.2636 33.3272 44.0146 32.8017 L43.9414 32.8017 C43.417 31.955 42.7451 31.2403 41.8408 30.876 C40.5986 30.1602 39.0244 29.9698 37.7089 30.627 Z M10.4336 33.0069 L10.4619 33.0352 L10.2578 33.2841 C10.0107 33.8233 9.70314 34.334 9.73144 34.962 C10.7099 35.3409 11.9804 35.3409 13.0166 34.962 C14.8408 34.3194 16.1972 32.8603 16.5195 30.876 C14.2705 30.1602 11.7617 30.9776 10.4336 33.0069 Z M35.8261 30.8017 C35.5507 31.123 35.3173 31.5605 35.2295 31.9843 C34.8925 32.6562 34.8925 33.3858 34.9072 34.1583 C35.0537 34.6553 35.04 35.209 35.331 35.6337 C35.7392 36.8584 36.6591 37.6474 37.6806 38.2315 L37.8125 38.1133 C38.6425 36.7871 38.8193 35.3272 38.3086 33.8085 C37.8554 32.5538 37.0976 31.459 35.8261 30.8017 Z M17.0888 32.3056 L17.1172 32.3349 L16.9131 32.4804 C15.4834 34.1153 15.3086 36.5673 16.2705 38.4062 C16.4013 38.5517 16.4316 38.8008 16.6211 38.8584 C17.5117 38.5087 17.9638 37.8077 18.5488 37.1367 L18.5185 37.1075 C19.5263 35.794 19.7011 34.0127 19.1894 32.3349 C19.0293 31.9843 18.8105 31.5605 18.5488 31.2548 C18.0507 31.5029 17.5273 31.8974 17.0888 32.3056 Z M37.8173 46.6915 C34.5273 46.6915 31.6308 45.4727 31.6308 45.4727 C31.6308 45.4727 29.5293 44.6806 29.5293 39.8056 C29.5293 35.8447 30.0781 35.1748 30.0781 35.1748 C29.5293 34.4434 29.2851 33.2852 29.2851 33.2852 L27.081 36.1923 L24.8984 33.2852 C24.8984 33.2852 24.6552 34.4434 24.1074 35.1748 C24.1074 35.1748 24.6552 35.8447 24.6552 39.8056 C24.6552 44.4365 22.5537 45.4727 22.5537 45.4727 C22.5537 45.4727 19.6591 46.6915 16.3681 46.6915 C13.0771 46.6915 12.6992 47.8486 12.6992 47.8486 L27.0693 47.8486 L27.0927 47.8486 L41.4853 47.8486 C41.4853 47.8486 41.1074 46.6915 37.8173 46.6915 Z" transform="translate(3.05566, 0.78125)"/>
    </g>

    <g style="fill:#004433; fill-rule:evenodd;stroke:none;">
      <path d="M2.2666 0 L2.2666 0.0684 C2.2666 0.3887 2.24317 0.9151 2.2207 1.6485 C2.19825 2.7237 2.19825 3.6397 2.19825 4.3721 L2.19825 4.4639 L2.17481 9.0059 L2.17481 9.0743 C2.17481 10.4698 2.19825 10.9746 2.2207 11.4551 L2.3584 11.4551 C2.99903 11.501 3.70898 11.5235 4.48731 11.5235 C6.63868 11.5235 7.67382 11.3868 8.56641 11.2032 L8.40528 13.3311 L0.023438 13.3311 L0.023438 13.2637 L0.023438 12.7823 L0.023438 11.7295 L0.023438 11.6153 L0 0.0225 L2.2666 0 Z" transform="translate(0.828125, 59.2568)"/>
      <path d="M7.2119 4.4639 C7.2119 6.1123 6.1123 7.3252 4.5791 7.3252 C3.0224 7.3252 1.8545 6.0898 1.8545 4.4873 C1.8545 2.8848 3.0224 1.6943 4.5791 1.6943 C6.1123 1.6943 7.2119 2.8623 7.2119 4.4639 Z M9.1572 4.4639 C9.1572 1.9687 7.166 0 4.625 0 C2.0146 0 0 1.9912 0 4.5557 C0 7.1201 1.9463 8.9736 4.5566 8.9736 C7.166 8.9736 9.1572 7.0508 9.1572 4.4639 Z" transform="translate(10.2178, 63.8213)"/>
      <path d="M0.0918 1.0986 C1.5332 0.3662 2.9072 0 4.1435 0 C6.1582 0 7.3027 1.2822 7.3027 3.5019 L7.3027 5.1504 L7.3027 5.2197 L7.3262 8.6748 L5.3115 8.6748 L5.4023 3.9375 L5.4023 3.914 C5.4023 2.2656 4.9453 1.6943 3.6621 1.6943 C3.1357 1.6943 2.6103 1.831 2.083 2.1289 L2.0146 6.8447 L2.0146 6.8672 C2.0146 7.8057 2.0605 8.2871 2.1523 8.6748 L0.1142 8.6748 L0.1836 3.8691 L0.1836 3.8457 C0.1836 2.1748 0.1377 1.7168 0 1.1445 L0.0918 1.0986 Z" transform="translate(21.2715, 63.9131)"/>
      <path d="M6.2949 7.4726 L6.2725 10.8603 L6.2725 10.998 C6.2725 11.7305 5.4941 12.2109 4.3496 12.2109 C2.999 12.2109 1.9229 10.9297 1.9229 9.3037 C1.9229 7.7461 2.9072 6.625 4.3496 6.625 C5.082 6.625 5.7686 6.9228 6.2949 7.4726 Z M8.3096 0 L6.1582 0.1836 L6.1582 0.2519 C6.1807 0.6875 6.1807 1.2363 6.2266 1.9463 C6.2725 3.1826 6.2949 4.4189 6.2949 4.7383 L6.3184 5.5264 C5.54 5.1133 4.8984 4.9316 4.2119 4.9316 C1.8535 4.9316 0 6.9687 0 9.5098 C0 12.0508 1.8086 13.9053 4.2344 13.9053 C4.9902 13.9053 5.2656 13.8359 6.4551 13.4238 C7.1885 13.1494 7.5088 13.1045 8.333 13.0801 L8.4238 13.0801 C8.2188 12.2334 8.1494 11.5469 8.1494 9.4639 L8.1494 9.418 L8.2412 3.2734 L8.2412 3.1826 C8.2412 3.1133 8.2647 2.541 8.2871 1.4883 C8.3096 1.0996 8.3096 0.664 8.3096 0.1142 L8.3096 0 Z" transform="translate(30.4707, 58.9131)"/>
      <path d="M7.2109 4.4639 C7.2109 6.1123 6.1123 7.3252 4.5781 7.3252 C3.0214 7.3252 1.8544 6.0898 1.8544 4.4873 C1.8544 2.8848 3.0214 1.6943 4.5781 1.6943 C6.1123 1.6943 7.2109 2.8623 7.2109 4.4639 Z M9.1572 4.4639 C9.1572 1.9687 7.165 0 4.624 0 C2.0146 0 0 1.9912 0 4.5557 C0 7.1201 1.9462 8.9736 4.5556 8.9736 C7.165 8.9736 9.1572 7.0508 9.1572 4.4639 Z" transform="translate(40.8145, 63.8213)"/>
      <path d="M0.0908 1.0986 C1.5332 0.3662 2.9072 0 4.1435 0 C6.1582 0 7.3027 1.2822 7.3027 3.5019 L7.3027 5.1504 L7.3027 5.2197 L7.3252 8.6748 L5.3105 8.6748 L5.4023 3.9375 L5.4023 3.914 C5.4023 2.2656 4.9443 1.6943 3.6631 1.6943 C3.1357 1.6943 2.6093 1.831 2.083 2.1289 L2.0146 6.8447 L2.0146 6.8672 C2.0146 7.8057 2.0595 8.2871 2.1513 8.6748 L0.1142 8.6748 L0.1826 3.8691 L0.1826 3.8457 C0.1826 2.1748 0.1377 1.7168 0 1.1445 L0.0908 1.0986 Z" transform="translate(51.8682, 63.9131)"/>
    </g>
    <g style="fill:#004433; fill-rule:evenodd;stroke:none;">
      <path d="M3.97461 1.2988 C3.66311 0.9277 3.04001 0.6455 2.51271 0.6455 C1.49024 0.6455 0.70411 1.4912 0.70411 2.5888 C0.70411 3.2861 0.97852 3.8271 1.52735 4.1972 C1.85251 4.4199 2.21681 4.539 2.57321 4.539 C3.06151 4.539 3.57421 4.3017 3.90721 3.9238 L4.40431 4.4716 C3.92191 4.9023 3.21681 5.1543 2.54981 5.1543 C1.11914 5.1543 0 4.0341 0 2.5888 C0 1.165 1.14844 0 2.56541 0 C3.20311 0 3.96681 0.2822 4.41891 0.6904 L3.97461 1.2988 Z" transform="translate(8.30859, 75.2139)"/>
      <path d="M2.3418 1.5713 L2.9873 3.0693 L1.7129 3.0693 L2.3418 1.5713 Z M4.8418 5.3759 L4.834 5.3613 L4.5528 4.7676 L4.1748 3.9892 L4.1524 3.9521 L2.669 0.667 L2.6465 0.6299 L2.4834 0.2441 C2.3945 0.0439 2.3653 0 2.3281 0 C2.2979 0 2.2676 0.0371 2.2315 0.1259 L2.1719 0.2812 L2.1641 0.3037 L0 5.3759 L0.7334 5.3759 L1.4531 3.6855 L3.2774 3.6855 L3.9961 5.3759 L4.8418 5.3759 Z" transform="translate(16.0576, 74.8887)"/>
      <path d="M4.0782 0.2832 L4.0703 5.2138 L4.0703 5.2431 L4.0703 5.2656 C4.0703 5.3623 4.0557 5.3916 4.0186 5.3916 C3.9893 5.3916 3.959 5.3623 3.9073 5.3027 L3.6035 4.9472 L3.3067 4.5908 L3.2842 4.5615 L1.794 2.8564 L1.7725 2.8262 L1.1338 2.1142 C0.9121 1.8623 0.7862 1.7217 0.7491 1.6845 C0.7491 1.6767 0.7344 1.6767 0.7119 1.6543 L0.7119 3.5898 L0.7119 3.6123 L0.7256 4.4951 C0.7344 4.873 0.7412 5.0957 0.7412 5.1543 C0.7491 5.1621 0.7491 5.1621 0.7491 5.1845 L0 5.1845 L0 5.1699 L0.0059 4.5762 L0.0215 3.708 L0.0215 3.6719 L0.0215 0.3203 L0.0215 0.2978 C0.0215 0.0898 0.0518 0 0.126 0 C0.1631 0 0.2149 0.0459 0.3106 0.1494 L3.4112 3.6494 L3.4112 3.6201 L3.418 2.9228 L3.4034 1.6328 L3.4034 1.6103 L3.3428 0.2158 L4.0782 0.2832 Z" transform="translate(24.4736, 75.0801)"/>
      <path d="M2.3438 1.5713 L2.9883 3.0693 L1.7129 3.0693 L2.3438 1.5713 Z M4.8418 5.3759 L4.835 5.3613 L4.5527 4.7676 L4.1748 3.9892 L4.1523 3.9521 L2.6699 0.667 L2.6475 0.6299 L2.4844 0.2441 C2.3955 0.0439 2.3652 0 2.3281 0 C2.2988 0 2.2695 0.0371 2.2314 0.1259 L2.1729 0.2812 L2.165 0.3037 L0 5.3759 L0.7344 5.3759 L1.4531 3.6855 L3.2773 3.6855 L3.9971 5.3759 L4.8418 5.3759 Z" transform="translate(32.125, 74.8887)"/>
      <path d="M0.7412 4.3076 L0.7412 0.6524 L0.7569 0.6524 C0.8604 0.6446 0.9717 0.6377 1.083 0.6377 C2.2988 0.6377 3.0029 1.2823 3.0029 2.3946 C3.0029 3.5293 2.21 4.3448 1.1123 4.3448 C0.9492 4.3448 0.8897 4.3379 0.7412 4.3076 Z M0 0.0811 C0 0.1035 0 0.0957 0 0.1035 C0.0078 0.1924 0.0078 0.3106 0.0147 0.4668 C0.0147 0.6524 0.0225 0.7637 0.0225 0.8076 L0.0225 0.8369 L0.0225 4.2041 L0.0225 4.2266 C0.0225 4.5078 0.0147 4.834 0 4.9444 C0.0225 4.9444 0.0371 4.9444 0.0371 4.9444 C0.1045 4.9531 0.2305 4.9531 0.4082 4.9531 L0.8526 4.96 C1.4834 4.96 2.0098 4.8789 2.4024 4.7012 C3.1817 4.3379 3.708 3.4033 3.708 2.3574 C3.708 0.8809 2.6924 0 1.0088 0 C0.7051 0 0.3486 0.0293 0.0303 0.0811 C0.0225 0.0811 0.0078 0.0811 0 0.0811 Z" transform="translate(40.541, 75.3115)"/>
      <path d="M2.3428 1.5713 L2.9883 3.0693 L1.7129 3.0693 L2.3428 1.5713 Z M4.8418 5.3759 L4.834 5.3613 L4.5527 4.7676 L4.1748 3.9892 L4.1523 3.9521 L2.6689 0.667 L2.6475 0.6299 L2.4834 0.2441 C2.3945 0.0439 2.3652 0 2.3281 0 C2.2988 0 2.2695 0.0371 2.2314 0.1259 L2.1719 0.2812 L2.165 0.3037 L0 5.3759 L0.7334 5.3759 L1.4531 3.6855 L3.2773 3.6855 L3.9961 5.3759 L4.8418 5.3759 Z" transform="translate(47.4336, 74.8887)"/>
    </g>
  </g>
</svg>
